<?xml version="1.0" encoding="utf-8"?>
<!-- Generator: Adobe Illustrator 24.3.0, SVG Export Plug-In . SVG Version: 6.00 Build 0)  -->
<svg version="1.1" id="Layer_1" xmlns="http://www.w3.org/2000/svg" xmlns:xlink="http://www.w3.org/1999/xlink" x="0px" y="0px"
	 viewBox="0 0 512 512" style="enable-background:new 0 0 512 512;" xml:space="preserve">
<style type="text/css">
	.st0{fill:none;stroke:#FFFFFF;stroke-width:32;stroke-linecap:round;stroke-linejoin:round;}
	.st1{fill:none;stroke:#FFFFFF;stroke-width:32;stroke-miterlimit:10;}
</style>
<g>
	
		<image style="overflow:visible;opacity:0.4;" width="270" height="284" xlink:href="DF1A1473.png"  transform="matrix(1 0 0 1 121 2)">
	</image>
	<g>
		<path class="st0" d="M344,144c-3.9,52.9-44,96-88,96s-84.1-43.1-88-96c-4-55,35-96,88-96S348,90,344,144z"/>
	</g>
</g>
<g>
	
		<image style="overflow:visible;opacity:0.4;" width="478" height="252" xlink:href="DF1A1471.png"  transform="matrix(1 0 0 1 17 258)">
	</image>
	<g>
		<path class="st1" d="M256,304c-87,0-175.3,48-191.6,138.6c-2,10.9,4.2,21.4,15.6,21.4h352c11.4,0,17.6-10.5,15.6-21.4
			C431.3,352,343,304,256,304z"/>
	</g>
</g>
</svg>
